<?xml version="1.0" encoding="UTF-8" standalone="no"?>
<!-- Created with Inkscape (http://www.inkscape.org/) -->

<svg
   width="37.095757mm"
   height="37.096001mm"
   viewBox="0 0 37.095757 37.096001"
   version="1.1"
   id="svg5"
   xml:space="preserve"
   xmlns="http://www.w3.org/2000/svg"
   xmlns:svg="http://www.w3.org/2000/svg"><defs
     id="defs2"><linearGradient
       id="linearGradient11855"><stop
         style="stop-color:#357bff;stop-opacity:1;"
         offset="0"
         id="stop11853" /></linearGradient></defs><g
     id="layer4"
     style="display:inline"
     transform="translate(-6.6010304,-8.0463)"><g
       id="g1473"
       style="display:inline;stroke:#357bff;stroke-width:5.68115;stroke-dasharray:none;stroke-dashoffset:0;stroke-opacity:1"
       transform="matrix(0.44869081,0,0,0.44869081,-27.306891,-44.575837)"><g
         id="g1468"
         style="stroke:#357bff;stroke-width:5.68115;stroke-dasharray:none;stroke-dashoffset:0;stroke-opacity:1"><g
           id="rect231"
           transform="rotate(45)"
           style="stroke-width:5.68115"><path
             id="path10785"
             style="color:#000000;fill:#b72854;fill-opacity:1;stroke:none;stroke-width:5.68115"
             d="m 165.61538,58.703406 v 0.03873 l 58.42172,3.66e-4 V 0.2816805 l -5.29074,5.290736 -3.6e-4,47.8767945 h -47.83989 v -0.03654 z" /><path
             id="path10785-2"
             style="color:#000000;fill:#0020fd;fill-opacity:1;stroke:none;stroke-width:5.68115;stroke-dasharray:none;stroke-dashoffset:0;stroke-opacity:1"
             d="m 224.03708,0.2816954 v -0.03874 l -58.42171,-3.71e-4 V 58.703405 l 5.29074,-5.290734 3.6e-4,-47.8767946 47.83989,1e-6 2e-5,0.03652 z" /></g><path
           id="rect231-5"
           style="color:#000000;font-variation-settings:normal;opacity:1;fill:#b72854;fill-opacity:1;stroke:none;stroke-width:5.68115;stroke-linecap:butt;stroke-linejoin:miter;stroke-miterlimit:4;stroke-dasharray:none;stroke-dashoffset:0;stroke-opacity:1;stop-color:#000000;stop-opacity:1"
           d="m 94.383082,158.61734 -0.01344,0.0134 22.525248,22.52524 22.53918,-22.53868 h -7.48326 l -15.05593,15.05593 -15.04249,-15.04249 0.0134,-0.0134 z" /><path
           id="rect231-5-6"
           style="color:#000000;font-variation-settings:normal;fill:#0020fd;fill-opacity:1;stroke:none;stroke-width:5.68115;stroke-linecap:butt;stroke-linejoin:miter;stroke-miterlimit:4;stroke-dasharray:none;stroke-dashoffset:0;stroke-opacity:1;stop-color:#000000"
           d="m 139.42068,158.61729 0.0134,-0.0134 -22.52525,-22.52524 -22.539184,22.53868 h 7.483264 l 15.05593,-15.05593 15.04249,15.04249 -0.0134,0.0134 z" /></g></g></g></svg>
